<svg id="svg" version="1.1" xmlns="http://www.w3.org/2000/svg" xmlns:xlink="http://www.w3.org/1999/xlink" width="400" height="400" viewBox="0, 0, 400,400"><g id="svgg"><path id="path0" d="M315.200 18.800 C 315.200 19.020,314.300 19.200,313.200 19.200 C 312.100 19.200,311.200 19.380,311.200 19.600 C 311.200 19.820,310.570 20.000,309.800 20.000 C 309.030 20.000,308.400 20.180,308.400 20.400 C 308.400 20.620,307.860 20.800,307.200 20.800 C 306.540 20.800,306.000 20.980,306.000 21.200 C 306.000 21.420,305.460 21.600,304.800 21.600 C 304.140 21.600,303.600 21.780,303.600 22.000 C 303.600 22.220,303.240 22.400,302.800 22.400 C 302.360 22.400,302.000 22.580,302.000 22.800 C 302.000 23.020,301.640 23.200,301.200 23.200 C 300.760 23.200,300.400 23.380,300.400 23.600 C 300.400 23.820,300.040 24.000,299.600 24.000 C 299.160 24.000,298.800 24.180,298.800 24.400 C 298.800 24.620,298.536 24.800,298.214 24.800 C 297.132 24.800,292.026 27.867,290.753 29.281 C 290.397 29.676,289.908 30.000,289.666 30.000 C 289.091 30.000,280.000 39.091,280.000 39.666 C 280.000 39.908,279.676 40.397,279.281 40.753 C 277.867 42.026,274.800 47.132,274.800 48.214 C 274.800 48.536,274.620 48.800,274.400 48.800 C 274.180 48.800,274.000 49.160,274.000 49.600 C 274.000 50.040,273.820 50.400,273.600 50.400 C 273.380 50.400,273.200 50.760,273.200 51.200 C 273.200 51.640,273.020 52.000,272.800 52.000 C 272.580 52.000,272.400 52.349,272.400 52.776 C 272.400 53.203,272.220 53.664,272.000 53.800 C 271.780 53.936,271.600 54.487,271.600 55.024 C 271.600 55.561,271.420 56.000,271.200 56.000 C 270.980 56.000,270.800 56.540,270.800 57.200 C 270.800 57.860,270.620 58.400,270.400 58.400 C 270.180 58.400,270.000 59.019,270.000 59.776 C 270.000 60.533,269.820 61.264,269.600 61.400 C 269.380 61.536,269.200 62.447,269.200 63.424 C 269.200 64.401,269.020 65.200,268.800 65.200 C 268.544 65.200,268.400 68.659,268.400 74.776 C 268.400 80.729,268.551 84.446,268.800 84.600 C 269.020 84.736,269.200 85.636,269.200 86.600 C 269.200 87.564,269.380 88.464,269.600 88.600 C 269.820 88.736,270.000 89.467,270.000 90.224 C 270.000 90.981,270.180 91.600,270.400 91.600 C 270.620 91.600,270.800 92.140,270.800 92.800 C 270.800 93.460,270.980 94.000,271.200 94.000 C 271.420 94.000,271.600 94.439,271.600 94.976 C 271.600 95.513,271.780 96.064,272.000 96.200 C 272.220 96.336,272.400 96.797,272.400 97.224 C 272.400 97.651,272.580 98.000,272.800 98.000 C 273.020 98.000,273.200 98.360,273.200 98.800 C 273.200 99.240,273.380 99.600,273.600 99.600 C 273.820 99.600,274.000 99.960,274.000 100.400 C 274.000 100.840,274.180 101.200,274.400 101.200 C 274.620 101.200,274.800 101.464,274.800 101.786 C 274.800 102.902,277.741 107.749,279.491 109.518 C 279.991 110.023,280.400 110.602,280.400 110.804 C 280.400 111.622,288.387 119.200,289.250 119.200 C 289.732 119.200,291.763 120.257,293.763 121.549 C 295.764 122.841,298.332 124.367,299.470 124.941 C 300.609 125.514,301.656 126.347,301.797 126.792 C 301.938 127.236,302.391 127.600,302.803 127.600 C 303.216 127.600,303.664 127.780,303.800 128.000 C 303.936 128.220,304.487 128.400,305.024 128.400 C 305.561 128.400,306.000 128.580,306.000 128.800 C 306.000 129.020,306.540 129.200,307.200 129.200 C 307.860 129.200,308.400 129.380,308.400 129.600 C 308.400 129.820,309.019 130.000,309.776 130.000 C 310.533 130.000,311.264 130.180,311.400 130.400 C 311.536 130.620,312.436 130.800,313.400 130.800 C 314.364 130.800,315.264 130.980,315.400 131.200 C 315.554 131.449,319.271 131.600,325.224 131.600 C 331.341 131.600,334.800 131.456,334.800 131.200 C 334.800 130.980,335.599 130.800,336.576 130.800 C 337.553 130.800,338.464 130.620,338.600 130.400 C 338.736 130.180,339.467 130.000,340.224 130.000 C 340.981 130.000,341.600 129.820,341.600 129.600 C 341.600 129.380,342.140 129.200,342.800 129.200 C 343.460 129.200,344.000 129.020,344.000 128.800 C 344.000 128.580,344.439 128.400,344.976 128.400 C 345.513 128.400,346.064 128.220,346.200 128.000 C 346.336 127.780,346.797 127.600,347.224 127.600 C 347.651 127.600,348.000 127.420,348.000 127.200 C 348.000 126.980,348.360 126.800,348.800 126.800 C 349.240 126.800,349.600 126.620,349.600 126.400 C 349.600 126.180,349.960 126.000,350.400 126.000 C 350.840 126.000,351.200 125.820,351.200 125.600 C 351.200 125.380,351.464 125.200,351.786 125.200 C 352.868 125.200,357.974 122.133,359.247 120.719 C 359.603 120.324,360.085 120.000,360.319 120.000 C 360.906 120.000,370.000 110.950,370.000 110.366 C 370.000 110.106,370.326 109.603,370.725 109.247 C 372.222 107.911,375.200 102.915,375.200 101.739 C 375.200 101.442,375.380 101.200,375.600 101.200 C 375.820 101.200,376.000 100.840,376.000 100.400 C 376.000 99.960,376.180 99.600,376.400 99.600 C 376.620 99.600,376.800 99.240,376.800 98.800 C 376.800 98.360,376.980 98.000,377.200 98.000 C 377.420 98.000,377.600 97.640,377.600 97.200 C 377.600 96.760,377.780 96.400,378.000 96.400 C 378.220 96.400,378.400 95.860,378.400 95.200 C 378.400 94.540,378.580 94.000,378.800 94.000 C 379.020 94.000,379.200 93.460,379.200 92.800 C 379.200 92.140,379.380 91.600,379.600 91.600 C 379.820 91.600,380.000 90.970,380.000 90.200 C 380.000 89.430,380.180 88.800,380.400 88.800 C 380.620 88.800,380.800 87.900,380.800 86.800 C 380.800 85.700,380.980 84.800,381.200 84.800 C 381.456 84.800,381.600 81.267,381.600 75.000 C 381.600 68.733,381.456 65.200,381.200 65.200 C 380.980 65.200,380.800 64.300,380.800 63.200 C 380.800 62.100,380.620 61.200,380.400 61.200 C 380.180 61.200,380.000 60.570,380.000 59.800 C 380.000 59.030,379.820 58.400,379.600 58.400 C 379.380 58.400,379.200 57.860,379.200 57.200 C 379.200 56.540,379.020 56.000,378.800 56.000 C 378.580 56.000,378.400 55.460,378.400 54.800 C 378.400 54.140,378.220 53.600,378.000 53.600 C 377.780 53.600,377.600 53.240,377.600 52.800 C 377.600 52.360,377.420 52.000,377.200 52.000 C 376.980 52.000,376.800 51.640,376.800 51.200 C 376.800 50.760,376.620 50.400,376.400 50.400 C 376.180 50.400,376.000 50.040,376.000 49.600 C 376.000 49.160,375.843 48.800,375.650 48.800 C 375.457 48.800,375.200 48.305,375.078 47.700 C 374.827 46.462,371.884 41.743,370.745 40.753 C 370.335 40.397,370.000 39.900,370.000 39.649 C 370.000 39.052,360.948 30.000,360.351 30.000 C 360.100 30.000,359.603 29.665,359.247 29.255 C 358.257 28.116,353.538 25.173,352.300 24.922 C 351.695 24.800,351.200 24.543,351.200 24.350 C 351.200 24.157,350.840 24.000,350.400 24.000 C 349.960 24.000,349.600 23.820,349.600 23.600 C 349.600 23.380,349.240 23.200,348.800 23.200 C 348.360 23.200,348.000 23.020,348.000 22.800 C 348.000 22.580,347.640 22.400,347.200 22.400 C 346.760 22.400,346.400 22.220,346.400 22.000 C 346.400 21.780,345.860 21.600,345.200 21.600 C 344.540 21.600,344.000 21.420,344.000 21.200 C 344.000 20.980,343.460 20.800,342.800 20.800 C 342.140 20.800,341.600 20.620,341.600 20.400 C 341.600 20.180,340.970 20.000,340.200 20.000 C 339.430 20.000,338.800 19.820,338.800 19.600 C 338.800 19.380,337.900 19.200,336.800 19.200 C 335.700 19.200,334.800 19.020,334.800 18.800 C 334.800 18.544,331.267 18.400,325.000 18.400 C 318.733 18.400,315.200 18.544,315.200 18.800 M37.200 40.410 L 37.200 50.020 43.700 49.910 L 50.200 49.800 50.307 40.300 L 50.414 30.800 43.807 30.800 L 37.200 30.800 37.200 40.410 M62.000 40.105 L 62.000 49.409 68.305 55.705 C 71.772 59.167,74.742 62.000,74.905 62.000 C 75.067 62.000,75.200 54.980,75.200 46.400 L 75.200 30.800 68.600 30.800 L 62.000 30.800 62.000 40.105 M330.600 51.600 C 330.736 51.820,331.377 52.000,332.024 52.000 C 332.671 52.000,333.200 52.180,333.200 52.400 C 333.200 52.620,333.560 52.800,334.000 52.800 C 334.440 52.800,334.800 52.980,334.800 53.200 C 334.800 53.420,335.160 53.600,335.600 53.600 C 336.040 53.600,336.400 53.780,336.400 54.000 C 336.400 54.220,336.720 54.400,337.112 54.400 C 337.503 54.400,338.083 54.760,338.400 55.200 C 338.717 55.640,339.215 56.000,339.507 56.000 C 340.198 56.000,344.000 59.802,344.000 60.493 C 344.000 60.785,344.360 61.283,344.800 61.600 C 345.240 61.917,345.600 62.497,345.600 62.888 C 345.600 63.280,345.780 63.600,346.000 63.600 C 346.220 63.600,346.400 63.960,346.400 64.400 C 346.400 64.840,346.580 65.200,346.800 65.200 C 347.020 65.200,347.200 65.560,347.200 66.000 C 347.200 66.440,347.380 66.800,347.600 66.800 C 347.820 66.800,348.000 67.329,348.000 67.976 C 348.000 68.623,348.180 69.264,348.400 69.400 C 348.634 69.545,348.800 71.863,348.800 75.000 C 348.800 78.137,348.634 80.455,348.400 80.600 C 348.180 80.736,348.000 81.377,348.000 82.024 C 348.000 82.671,347.820 83.200,347.600 83.200 C 347.380 83.200,347.200 83.560,347.200 84.000 C 347.200 84.440,347.020 84.800,346.800 84.800 C 346.580 84.800,346.400 85.160,346.400 85.600 C 346.400 86.040,346.220 86.400,346.000 86.400 C 345.780 86.400,345.600 86.720,345.600 87.112 C 345.600 87.503,345.240 88.083,344.800 88.400 C 344.360 88.717,344.000 89.215,344.000 89.507 C 344.000 90.190,340.535 93.627,339.100 94.368 C 338.495 94.680,338.000 95.085,338.000 95.268 C 338.000 95.450,337.640 95.600,337.200 95.600 C 336.760 95.600,336.400 95.780,336.400 96.000 C 336.400 96.220,336.040 96.400,335.600 96.400 C 335.160 96.400,334.800 96.580,334.800 96.800 C 334.800 97.020,334.440 97.200,334.000 97.200 C 333.560 97.200,333.200 97.380,333.200 97.600 C 333.200 97.820,332.660 98.000,332.000 98.000 C 331.340 98.000,330.800 98.180,330.800 98.400 C 330.800 98.648,328.600 98.800,325.000 98.800 C 321.400 98.800,319.200 98.648,319.200 98.400 C 319.200 98.180,318.660 98.000,318.000 98.000 C 317.340 98.000,316.800 97.820,316.800 97.600 C 316.800 97.380,316.440 97.200,316.000 97.200 C 315.560 97.200,315.200 97.020,315.200 96.800 C 315.200 96.580,314.840 96.400,314.400 96.400 C 313.960 96.400,313.600 96.220,313.600 96.000 C 313.600 95.780,313.240 95.600,312.800 95.600 C 312.360 95.600,312.000 95.450,312.000 95.268 C 312.000 95.085,311.505 94.680,310.900 94.368 C 310.295 94.055,308.990 92.990,308.000 92.000 C 307.010 91.010,305.945 89.705,305.632 89.100 C 305.320 88.495,304.915 88.000,304.732 88.000 C 304.550 88.000,304.400 87.640,304.400 87.200 C 304.400 86.760,304.220 86.400,304.000 86.400 C 303.780 86.400,303.600 86.040,303.600 85.600 C 303.600 85.160,303.420 84.800,303.200 84.800 C 302.980 84.800,302.800 84.440,302.800 84.000 C 302.800 83.560,302.620 83.200,302.400 83.200 C 302.180 83.200,302.000 82.671,302.000 82.024 C 302.000 81.377,301.820 80.736,301.600 80.600 C 301.364 80.454,301.200 78.063,301.200 74.776 C 301.200 71.325,301.352 69.200,301.600 69.200 C 301.820 69.200,302.000 68.660,302.000 68.000 C 302.000 67.340,302.180 66.800,302.400 66.800 C 302.620 66.800,302.800 66.440,302.800 66.000 C 302.800 65.560,302.980 65.200,303.200 65.200 C 303.420 65.200,303.600 64.840,303.600 64.400 C 303.600 63.960,303.780 63.600,304.000 63.600 C 304.220 63.600,304.400 63.280,304.400 62.888 C 304.400 62.497,304.760 61.917,305.200 61.600 C 305.640 61.283,306.000 60.785,306.000 60.493 C 306.000 59.810,309.465 56.373,310.900 55.632 C 311.505 55.320,312.000 54.915,312.000 54.732 C 312.000 54.550,312.360 54.400,312.800 54.400 C 313.240 54.400,313.600 54.220,313.600 54.000 C 313.600 53.780,313.960 53.600,314.400 53.600 C 314.840 53.600,315.200 53.420,315.200 53.200 C 315.200 52.980,315.560 52.800,316.000 52.800 C 316.440 52.800,316.800 52.620,316.800 52.400 C 316.800 52.180,317.329 52.000,317.976 52.000 C 318.623 52.000,319.264 51.820,319.400 51.600 C 319.545 51.366,321.863 51.200,325.000 51.200 C 328.137 51.200,330.455 51.366,330.600 51.600 M12.000 62.607 L 12.000 69.214 21.500 69.107 L 31.000 69.000 31.110 62.500 L 31.220 56.000 21.610 56.000 L 12.000 56.000 12.000 62.607 M12.000 81.407 L 12.000 88.014 21.500 87.907 L 31.000 87.800 31.110 81.300 L 31.220 74.800 21.610 74.800 L 12.000 74.800 12.000 81.407 M81.290 81.300 L 81.400 87.800 90.900 87.907 L 100.400 88.014 100.400 81.407 L 100.400 74.800 90.790 74.800 L 81.180 74.800 81.290 81.300 M12.000 100.000 L 12.000 106.814 21.500 106.707 L 31.000 106.600 31.000 100.000 L 31.000 93.400 21.500 93.293 L 12.000 93.186 12.000 100.000 M81.377 93.717 C 81.268 94.001,81.228 97.016,81.289 100.417 L 81.400 106.600 90.900 106.707 L 100.400 106.814 100.400 100.007 L 100.400 93.200 90.987 93.200 C 83.663 93.200,81.531 93.315,81.377 93.717 M37.476 112.657 C 37.324 112.809,37.200 117.133,37.200 122.267 L 37.200 131.600 43.807 131.600 L 50.414 131.600 50.307 122.100 L 50.200 112.600 43.976 112.490 C 40.553 112.430,37.628 112.505,37.476 112.657 M62.276 112.657 C 62.124 112.809,62.000 117.133,62.000 122.267 L 62.000 131.600 68.607 131.600 L 75.214 131.600 75.107 122.100 L 75.000 112.600 68.776 112.490 C 65.353 112.430,62.428 112.505,62.276 112.657 M318.400 187.000 L 318.400 193.200 305.800 193.200 L 293.200 193.200 293.200 209.000 L 293.200 224.800 318.600 224.800 L 344.000 224.800 344.000 203.433 C 344.000 191.681,343.891 181.781,343.757 181.433 C 343.543 180.874,342.039 180.800,330.957 180.800 L 318.400 180.800 318.400 187.000 M171.600 294.147 C 161.996 295.885,160.559 297.653,147.354 323.987 C 136.186 346.257,136.932 343.621,140.551 348.039 C 141.678 349.415,145.660 354.604,149.400 359.571 L 156.200 368.600 175.000 368.600 L 193.800 368.600 200.600 359.571 C 204.340 354.604,208.322 349.415,209.449 348.039 C 213.078 343.609,213.826 346.253,202.641 323.969 C 192.012 302.791,191.552 301.985,188.428 299.064 C 185.315 296.153,177.857 293.243,174.523 293.638 C 174.346 293.659,173.030 293.888,171.600 294.147 " stroke="none" fill="#fbb42a" fill-rule="evenodd"></path><path id="path1" d="M208.000 75.953 C 208.000 76.148,208.370 76.404,208.823 76.522 C 209.498 76.698,209.561 76.635,209.174 76.169 C 208.646 75.532,208.000 75.414,208.000 75.953 M214.063 80.369 C 214.578 81.022,215.270 81.560,215.600 81.566 C 216.060 81.573,216.035 81.479,215.492 81.163 C 215.102 80.936,214.871 80.608,214.979 80.434 C 215.087 80.260,214.714 79.907,214.150 79.650 L 213.125 79.183 214.063 80.369 M156.200 81.372 C 151.503 82.427,147.252 84.291,144.157 86.653 C 142.735 87.739,142.217 87.951,141.969 87.549 C 141.790 87.260,141.504 87.163,141.333 87.333 C 141.163 87.504,141.272 87.797,141.576 87.985 C 142.037 88.270,142.018 88.439,141.465 88.992 C 141.099 89.358,140.800 89.458,140.800 89.215 C 140.800 88.972,140.170 89.403,139.400 90.173 C 138.630 90.943,138.000 91.687,138.000 91.826 C 138.000 91.965,137.460 92.583,136.800 93.200 C 136.140 93.817,135.600 94.575,135.600 94.885 C 135.600 95.195,135.240 95.836,134.800 96.308 C 134.360 96.780,134.000 97.433,134.000 97.760 C 134.000 98.086,133.820 98.464,133.600 98.600 C 133.380 98.736,133.200 99.197,133.200 99.624 C 133.200 100.051,133.059 100.400,132.887 100.400 C 132.715 100.400,132.346 101.255,132.065 102.300 C 131.785 103.345,131.373 104.830,131.149 105.600 C 130.351 108.347,131.286 119.817,132.584 123.200 C 133.716 126.152,134.094 126.870,136.051 129.800 C 139.424 134.851,143.381 138.360,148.600 140.927 C 149.480 141.359,150.650 141.889,151.200 142.103 C 151.750 142.318,152.513 142.652,152.895 142.847 C 153.277 143.041,154.132 143.200,154.795 143.200 L 156.000 143.200 156.000 154.824 C 156.000 164.015,155.895 166.385,155.500 166.149 C 155.225 165.985,154.084 165.164,152.964 164.325 C 149.372 161.635,149.600 160.709,149.600 177.994 L 149.600 193.189 123.300 193.323 C 104.187 193.420,96.453 193.592,95.000 193.951 C 93.900 194.222,92.415 194.544,91.700 194.666 C 90.985 194.788,90.400 195.048,90.400 195.244 C 90.400 195.440,89.860 195.600,89.200 195.600 C 88.540 195.600,88.000 195.780,88.000 196.000 C 88.000 196.220,87.460 196.400,86.800 196.400 C 86.140 196.400,85.600 196.580,85.600 196.800 C 85.600 197.020,85.240 197.200,84.800 197.200 C 84.360 197.200,84.000 197.380,84.000 197.600 C 84.000 197.820,83.640 198.000,83.200 198.000 C 82.760 198.000,82.400 198.136,82.400 198.302 C 82.400 198.469,81.815 198.864,81.100 199.180 C 80.385 199.497,79.451 200.080,79.025 200.478 C 78.598 200.875,78.093 201.200,77.903 201.200 C 77.712 201.200,76.981 201.739,76.278 202.398 C 75.575 203.057,74.874 203.597,74.720 203.598 C 74.566 203.599,72.679 205.310,70.527 207.400 C 68.375 209.490,66.476 211.200,66.307 211.200 C 66.138 211.200,66.000 211.448,66.000 211.751 C 66.000 212.054,65.719 212.536,65.375 212.821 C 64.213 213.785,65.723 214.015,68.846 213.351 C 93.105 208.190,113.321 233.362,103.349 256.315 C 90.781 285.246,48.499 278.895,43.996 247.400 C 43.527 244.116,42.878 242.151,42.749 243.620 C 42.721 243.939,42.639 244.560,42.567 245.000 C 42.494 245.440,42.313 246.569,42.164 247.510 C 42.014 248.450,41.736 249.316,41.546 249.433 C 41.356 249.551,41.200 250.346,41.200 251.200 C 41.200 252.054,41.020 252.864,40.800 253.000 C 40.580 253.136,40.400 254.047,40.400 255.024 C 40.400 256.001,40.220 256.800,40.000 256.800 C 39.780 256.800,39.600 257.419,39.600 258.176 C 39.600 258.933,39.420 259.664,39.200 259.800 C 38.980 259.936,38.800 260.656,38.800 261.400 C 38.800 262.144,38.620 262.864,38.400 263.000 C 38.180 263.136,38.000 264.047,38.000 265.024 C 38.000 266.001,37.820 266.800,37.600 266.800 C 37.380 266.800,37.200 267.520,37.200 268.400 C 37.200 269.280,37.020 270.000,36.800 270.000 C 36.580 270.000,36.400 270.720,36.400 271.600 C 36.400 272.480,36.220 273.200,36.000 273.200 C 35.780 273.200,35.600 273.999,35.600 274.976 C 35.600 275.953,35.420 276.864,35.200 277.000 C 34.980 277.136,34.800 277.766,34.800 278.400 C 34.800 279.034,34.620 279.664,34.400 279.800 C 34.180 279.936,34.000 280.757,34.000 281.624 C 34.000 282.491,33.838 283.200,33.640 283.200 C 33.442 283.200,33.189 283.965,33.076 284.900 C 32.964 285.835,32.662 287.410,32.407 288.400 C 32.151 289.390,31.845 290.787,31.727 291.504 C 31.608 292.221,31.351 292.906,31.156 293.027 C 30.960 293.148,30.800 294.057,30.800 295.047 C 30.800 296.037,30.656 296.758,30.480 296.649 C 30.304 296.541,30.115 297.115,30.061 297.925 C 30.006 298.735,29.790 299.570,29.581 299.779 C 29.371 299.989,29.200 300.844,29.200 301.680 C 29.200 302.516,29.020 303.200,28.800 303.200 C 28.580 303.200,28.400 304.010,28.400 305.000 C 28.400 305.990,28.220 306.800,28.000 306.800 C 27.780 306.800,27.600 307.419,27.600 308.176 C 27.600 308.933,27.420 309.664,27.200 309.800 C 26.980 309.936,26.800 310.746,26.800 311.600 C 26.800 312.454,26.610 313.270,26.379 313.413 C 26.147 313.556,26.027 313.880,26.111 314.133 C 26.195 314.385,26.051 315.314,25.790 316.196 C 25.530 317.078,25.350 318.205,25.392 318.700 C 25.433 319.195,25.316 319.600,25.133 319.600 C 24.950 319.600,24.800 320.410,24.800 321.400 C 24.800 322.390,24.620 323.200,24.400 323.200 C 24.180 323.200,24.000 323.920,24.000 324.800 C 24.000 325.680,23.820 326.400,23.600 326.400 C 23.380 326.400,23.200 327.019,23.200 327.776 C 23.200 328.533,23.020 329.264,22.800 329.400 C 22.580 329.536,22.400 330.457,22.400 331.447 C 22.400 332.545,22.244 333.151,22.000 333.000 C 21.756 332.849,21.600 333.463,21.600 334.576 C 21.600 335.579,21.420 336.400,21.200 336.400 C 20.980 336.400,20.800 336.850,20.800 337.400 C 20.800 338.846,21.231 338.643,22.712 336.499 C 35.608 317.825,63.432 323.140,68.263 345.200 C 71.541 360.167,59.436 374.820,43.816 374.794 C 36.244 374.782,31.484 372.703,25.000 366.576 C 23.617 365.270,23.380 365.167,23.254 365.817 C 23.174 366.231,23.309 366.636,23.554 366.718 C 23.799 366.800,24.000 367.291,24.000 367.810 C 24.000 368.328,24.180 368.864,24.400 369.000 C 24.620 369.136,24.800 369.766,24.800 370.400 C 24.800 371.034,24.956 371.649,25.147 371.768 C 25.474 371.969,26.187 375.046,26.059 375.700 C 26.026 375.865,26.180 376.000,26.400 376.000 C 26.620 376.000,26.800 376.525,26.800 377.167 C 26.800 377.808,26.935 378.393,27.101 378.467 C 27.512 378.649,29.200 383.703,29.200 384.753 C 29.200 385.219,29.380 385.600,29.600 385.600 C 29.820 385.600,30.000 386.136,30.000 386.790 L 30.000 387.981 60.800 387.995 L 91.600 388.009 91.600 386.805 C 91.600 386.142,91.440 385.600,91.244 385.600 C 91.048 385.600,90.514 384.835,90.056 383.900 C 89.009 381.761,87.947 379.983,87.296 379.280 C 87.019 378.980,86.875 378.603,86.975 378.441 C 87.075 378.278,86.807 377.893,86.379 377.585 C 85.950 377.276,85.600 376.703,85.600 376.312 C 85.600 375.920,85.420 375.600,85.200 375.600 C 84.980 375.600,84.800 375.229,84.800 374.776 C 84.800 374.323,84.620 374.064,84.400 374.200 C 84.180 374.336,84.000 374.167,84.000 373.824 C 84.000 373.481,83.820 373.200,83.600 373.200 C 83.380 373.200,83.200 372.840,83.200 372.400 C 83.200 371.960,83.020 371.600,82.800 371.600 C 82.580 371.600,82.400 371.306,82.400 370.947 C 82.400 370.588,82.085 370.001,81.700 369.643 C 80.838 368.841,80.000 367.387,80.000 366.694 C 80.000 366.409,79.640 365.917,79.200 365.600 C 78.760 365.283,78.400 364.703,78.400 364.312 C 78.400 363.920,78.220 363.600,78.000 363.600 C 77.780 363.600,77.600 363.358,77.600 363.062 C 77.600 362.766,77.240 362.198,76.800 361.800 C 76.360 361.402,76.000 360.744,76.000 360.338 C 76.000 359.932,75.820 359.600,75.600 359.600 C 75.380 359.600,75.200 359.429,75.200 359.220 C 75.200 359.011,74.660 358.040,74.000 357.062 C 73.340 356.084,72.800 355.098,72.800 354.871 C 72.800 354.643,72.550 354.207,72.245 353.902 C 70.735 352.392,69.733 349.315,70.353 348.095 C 71.021 346.781,71.534 345.396,72.054 343.500 C 72.340 342.455,72.715 341.600,72.887 341.600 C 73.059 341.600,73.200 341.161,73.200 340.624 C 73.200 340.087,73.390 339.530,73.621 339.387 C 73.853 339.244,73.974 338.923,73.891 338.674 C 73.808 338.425,73.965 337.789,74.239 337.261 C 74.513 336.733,74.630 336.023,74.500 335.685 C 74.345 335.281,74.425 335.168,74.732 335.358 C 75.050 335.555,75.200 335.256,75.200 334.424 C 75.200 333.751,75.380 333.200,75.600 333.200 C 75.820 333.200,76.000 332.660,76.000 332.000 C 76.000 331.340,76.180 330.800,76.400 330.800 C 76.620 330.800,76.800 330.260,76.800 329.600 C 76.800 328.940,76.980 328.400,77.200 328.400 C 77.420 328.400,77.600 328.051,77.600 327.624 C 77.600 327.197,77.780 326.736,78.000 326.600 C 78.220 326.464,78.400 325.911,78.400 325.371 C 78.400 324.831,78.559 324.077,78.753 323.695 C 78.948 323.313,79.329 322.460,79.600 321.800 C 79.871 321.140,80.252 320.287,80.447 319.905 C 80.641 319.523,80.800 318.859,80.800 318.429 C 80.800 317.999,80.980 317.536,81.200 317.400 C 81.420 317.264,81.600 316.713,81.600 316.176 C 81.600 315.639,81.780 315.200,82.000 315.200 C 82.220 315.200,82.400 314.851,82.400 314.424 C 82.400 313.997,82.580 313.536,82.800 313.400 C 83.020 313.264,83.200 312.713,83.200 312.176 C 83.200 311.639,83.341 311.200,83.513 311.200 C 83.685 311.200,83.866 310.713,83.915 310.118 C 84.077 308.167,86.400 308.569,86.400 310.547 C 86.400 310.906,86.580 311.200,86.800 311.200 C 87.020 311.200,87.200 311.560,87.200 312.000 C 87.200 312.440,87.380 312.800,87.600 312.800 C 87.820 312.800,88.000 313.160,88.000 313.600 C 88.000 314.040,88.158 314.400,88.351 314.400 C 88.545 314.400,88.927 314.940,89.200 315.600 C 89.473 316.260,89.855 316.800,90.049 316.800 C 90.242 316.800,90.400 317.160,90.400 317.600 C 90.400 318.040,90.580 318.400,90.800 318.400 C 91.020 318.400,91.200 318.655,91.200 318.967 C 91.200 319.278,91.335 319.593,91.500 319.667 C 91.665 319.740,92.700 321.555,93.800 323.700 C 94.900 325.845,95.935 327.600,96.100 327.600 C 96.265 327.600,96.400 327.960,96.400 328.400 C 96.400 328.840,96.580 329.200,96.800 329.200 C 97.020 329.200,97.200 329.560,97.200 330.000 C 97.200 330.440,97.380 330.800,97.600 330.800 C 97.820 330.800,98.000 331.036,98.000 331.325 C 98.000 331.613,98.360 332.236,98.800 332.708 C 99.240 333.180,99.600 333.767,99.600 334.012 C 99.600 334.257,99.872 334.729,100.204 335.061 C 100.536 335.393,100.705 335.830,100.580 336.032 C 100.455 336.235,100.543 336.400,100.776 336.400 C 101.009 336.400,101.200 336.670,101.200 337.000 C 101.200 337.330,101.380 337.600,101.600 337.600 C 101.820 337.600,102.000 337.870,102.000 338.200 C 102.000 338.530,102.180 338.800,102.400 338.800 C 102.620 338.800,102.800 339.171,102.800 339.624 C 102.800 340.077,102.980 340.336,103.200 340.200 C 103.420 340.064,103.600 340.199,103.600 340.501 C 103.600 340.802,103.967 341.443,104.416 341.925 C 104.864 342.406,105.031 342.800,104.787 342.800 C 104.531 342.800,104.597 343.054,104.943 343.400 C 105.377 343.834,106.435 344.000,108.771 344.000 L 112.000 344.000 112.000 366.000 L 112.000 388.000 175.000 388.000 L 238.000 388.000 238.000 366.000 L 238.000 344.000 241.400 344.000 C 244.499 344.000,244.800 343.931,244.800 343.224 C 244.800 342.797,244.980 342.336,245.200 342.200 C 245.420 342.064,245.600 341.513,245.600 340.976 C 245.600 340.439,245.780 340.000,246.000 340.000 C 246.220 340.000,246.400 339.550,246.400 339.000 C 246.400 338.450,246.580 338.000,246.800 338.000 C 247.020 338.000,247.200 337.460,247.200 336.800 C 247.200 336.140,247.380 335.600,247.600 335.600 C 247.820 335.600,248.000 335.071,248.000 334.424 C 248.000 333.777,248.180 333.136,248.400 333.000 C 248.620 332.864,248.800 332.313,248.800 331.776 C 248.800 331.239,248.980 330.800,249.200 330.800 C 249.420 330.800,249.600 330.440,249.600 330.000 C 249.600 329.560,249.780 329.200,250.000 329.200 C 250.220 329.200,250.400 328.840,250.400 328.400 C 250.400 327.960,250.503 327.600,250.629 327.600 C 250.995 327.600,252.000 328.708,252.000 329.112 C 252.000 329.315,252.540 330.046,253.200 330.737 C 253.860 331.428,254.400 332.192,254.400 332.436 C 254.400 332.680,254.931 333.375,255.581 333.982 C 256.230 334.589,256.815 335.336,256.881 335.643 C 256.946 335.949,257.285 336.470,257.633 336.800 C 257.981 337.130,258.606 337.940,259.021 338.600 C 260.096 340.307,262.078 342.887,262.900 343.647 C 263.285 344.003,263.600 344.516,263.600 344.786 C 263.600 345.057,264.140 345.783,264.800 346.400 C 265.460 347.017,266.000 347.727,266.000 347.979 C 266.000 348.688,268.023 350.542,268.369 350.149 C 268.539 349.957,268.903 348.450,269.179 346.800 C 271.888 330.620,286.403 321.795,302.211 326.716 C 304.136 327.315,306.444 328.593,308.798 330.361 C 309.997 331.263,311.113 332.000,311.277 332.000 C 311.670 332.000,315.254 337.379,316.150 339.316 C 318.497 344.383,319.011 352.582,317.301 357.681 C 313.706 368.400,303.532 375.340,292.348 374.703 C 289.074 374.516,288.800 374.558,288.800 375.250 C 288.800 375.671,289.081 376.000,289.440 376.000 C 289.791 376.000,290.583 376.540,291.200 377.200 C 291.817 377.860,292.517 378.400,292.757 378.400 C 292.997 378.400,293.418 378.760,293.693 379.200 C 293.968 379.640,294.419 380.000,294.696 380.000 C 294.973 380.000,295.200 380.180,295.200 380.400 C 295.200 380.620,295.390 380.800,295.622 380.800 C 295.854 380.800,296.619 381.339,297.322 381.998 C 298.025 382.657,298.743 383.197,298.918 383.198 C 299.093 383.199,299.686 383.650,300.236 384.200 C 300.786 384.750,301.386 385.200,301.568 385.200 C 301.750 385.200,302.587 385.830,303.428 386.600 L 304.956 388.000 336.845 388.000 C 367.841 388.000,370.000 387.943,370.000 387.129 C 370.000 386.666,368.991 385.607,368.529 385.583 C 368.348 385.574,367.758 385.034,367.219 384.383 C 366.679 383.732,366.094 383.200,365.919 383.200 C 365.745 383.200,362.278 379.894,358.215 375.852 C 354.153 371.811,350.732 368.601,350.614 368.719 C 350.496 368.837,350.400 368.710,350.400 368.438 C 350.400 367.898,349.436 366.800,348.962 366.800 C 348.604 366.800,349.375 367.535,338.260 356.596 C 333.232 351.648,328.976 347.600,328.800 347.600 C 328.192 347.600,311.200 330.432,311.200 329.817 C 311.200 329.478,311.020 329.200,310.800 329.200 C 310.580 329.200,310.400 328.840,310.400 328.400 C 310.400 327.960,310.220 327.600,310.000 327.600 C 309.780 327.600,309.600 327.150,309.600 326.600 C 309.600 326.050,309.420 325.600,309.200 325.600 C 308.980 325.600,308.800 325.330,308.800 325.000 C 308.800 324.670,308.620 324.400,308.400 324.400 C 308.180 324.400,308.000 324.025,308.000 323.568 C 308.000 323.110,307.370 321.480,306.600 319.946 C 305.830 318.411,305.200 316.896,305.200 316.578 C 305.200 316.260,305.020 316.000,304.800 316.000 C 304.580 316.000,304.400 315.640,304.400 315.200 C 304.400 314.760,304.220 314.400,304.000 314.400 C 303.780 314.400,303.600 314.040,303.600 313.600 C 303.600 313.160,303.420 312.800,303.200 312.800 C 302.980 312.800,302.800 312.440,302.800 312.000 C 302.800 311.560,302.620 311.200,302.400 311.200 C 302.180 311.200,302.000 310.840,302.000 310.400 C 302.000 309.960,301.820 309.600,301.600 309.600 C 301.380 309.600,301.200 309.330,301.200 309.000 C 301.200 308.670,301.058 308.400,300.885 308.400 C 300.712 308.400,300.540 307.998,300.503 307.506 C 300.466 307.014,300.248 306.549,300.018 306.473 C 299.788 306.396,299.600 305.898,299.600 305.367 C 299.600 304.835,299.465 304.399,299.300 304.397 C 298.941 304.393,298.000 302.456,298.000 301.720 C 298.000 301.434,297.820 301.200,297.600 301.200 C 297.380 301.200,297.200 300.840,297.200 300.400 C 297.200 299.960,297.020 299.600,296.800 299.600 C 296.580 299.600,296.400 299.240,296.400 298.800 C 296.400 298.360,296.220 298.000,296.000 298.000 C 295.780 298.000,295.600 297.640,295.600 297.200 C 295.600 296.760,295.420 296.400,295.200 296.400 C 294.980 296.400,294.800 296.040,294.800 295.600 C 294.800 295.160,294.654 294.800,294.475 294.800 C 294.296 294.800,293.902 294.170,293.600 293.400 C 293.298 292.630,292.904 292.000,292.725 292.000 C 292.546 292.000,292.400 291.561,292.400 291.024 C 292.400 290.487,292.220 289.936,292.000 289.800 C 291.780 289.664,291.600 289.294,291.600 288.977 C 291.600 288.264,285.554 275.850,285.117 275.667 C 284.943 275.593,284.800 275.188,284.800 274.767 C 284.800 274.345,284.620 274.000,284.400 274.000 C 284.180 274.000,284.000 273.651,284.000 273.224 C 284.000 272.797,283.820 272.336,283.600 272.200 C 283.380 272.064,283.196 271.648,283.191 271.276 C 283.186 270.904,282.830 270.150,282.400 269.600 C 281.970 269.050,281.614 268.195,281.609 267.700 C 281.604 267.205,281.420 266.800,281.200 266.800 C 280.980 266.800,280.800 266.440,280.800 266.000 C 280.800 265.560,280.620 265.200,280.400 265.200 C 280.180 265.200,280.000 264.840,280.000 264.400 C 280.000 263.960,279.820 263.600,279.600 263.600 C 279.380 263.600,279.200 263.240,279.200 262.800 C 279.200 262.360,279.020 262.000,278.800 262.000 C 278.580 262.000,278.400 261.640,278.400 261.200 C 278.400 260.760,278.254 260.400,278.075 260.400 C 277.896 260.400,277.502 259.770,277.200 259.000 C 276.898 258.230,276.504 257.600,276.325 257.600 C 276.146 257.600,276.000 257.240,276.000 256.800 C 276.000 256.360,275.820 256.000,275.600 256.000 C 275.345 256.000,275.200 252.806,275.200 247.218 L 275.200 238.436 274.200 237.436 C 273.516 236.752,273.200 235.996,273.200 235.042 C 273.200 234.275,273.020 233.536,272.800 233.400 C 272.580 233.264,272.400 232.711,272.400 232.171 C 272.400 231.631,272.234 230.877,272.032 230.495 C 270.714 228.006,269.898 225.110,270.425 224.785 C 270.873 224.507,270.812 224.145,270.086 222.785 C 269.599 221.872,269.200 220.871,269.200 220.562 C 269.200 220.253,269.020 220.000,268.800 220.000 C 268.580 220.000,268.400 219.728,268.400 219.396 C 268.400 219.064,267.860 218.228,267.200 217.537 C 266.540 216.846,266.000 216.038,266.000 215.741 C 266.000 215.443,265.820 215.200,265.600 215.200 C 265.380 215.200,265.200 215.022,265.200 214.805 C 265.200 214.154,263.434 212.214,259.131 208.140 C 258.399 207.447,257.350 206.327,256.800 205.652 C 256.250 204.976,255.575 204.419,255.300 204.412 C 255.025 204.405,254.800 204.220,254.800 204.000 C 254.800 203.780,254.540 203.600,254.223 203.600 C 253.905 203.600,253.410 203.285,253.123 202.900 C 252.835 202.515,252.341 202.144,252.025 202.075 C 251.709 202.006,251.148 201.601,250.778 201.175 C 250.409 200.749,249.812 200.400,249.453 200.400 C 249.094 200.400,248.800 200.220,248.800 200.000 C 248.800 199.780,248.440 199.600,248.000 199.600 C 247.560 199.600,247.200 199.420,247.200 199.200 C 247.200 198.980,246.840 198.800,246.400 198.800 C 245.960 198.800,245.600 198.620,245.600 198.400 C 245.600 198.180,245.240 198.000,244.800 198.000 C 244.360 198.000,244.000 197.820,244.000 197.600 C 244.000 197.380,243.539 197.200,242.976 197.200 C 242.396 197.200,242.060 197.027,242.200 196.800 C 242.340 196.574,242.012 196.400,241.447 196.400 C 240.897 196.400,240.336 196.220,240.200 196.000 C 240.064 195.780,239.524 195.600,239.000 195.600 C 238.476 195.600,237.936 195.420,237.800 195.200 C 237.664 194.980,236.933 194.800,236.176 194.800 C 235.419 194.800,234.800 194.620,234.800 194.400 C 234.800 194.180,233.977 194.000,232.971 194.000 C 230.942 194.000,229.396 193.020,230.424 192.385 C 230.728 192.197,230.858 191.925,230.713 191.779 C 230.567 191.634,229.979 191.984,229.406 192.558 L 228.364 193.600 212.201 193.600 C 201.162 193.600,195.683 193.457,194.919 193.150 C 192.633 192.231,191.780 191.782,191.025 191.100 C 190.598 190.715,190.053 190.400,189.813 190.400 C 189.573 190.400,189.117 190.040,188.800 189.600 C 188.483 189.160,188.027 188.800,187.787 188.800 C 187.547 188.800,187.002 188.476,186.575 188.081 C 185.886 187.441,181.740 184.460,180.066 183.400 C 179.718 183.180,179.231 182.820,178.983 182.600 C 178.736 182.380,176.433 180.774,173.866 179.031 L 169.200 175.863 169.200 159.531 L 169.200 143.200 170.376 143.200 C 171.023 143.200,171.664 143.020,171.800 142.800 C 171.936 142.580,172.391 142.400,172.811 142.400 C 173.232 142.400,174.217 142.040,175.000 141.600 C 175.783 141.160,176.689 140.800,177.012 140.800 C 177.335 140.800,177.600 140.620,177.600 140.400 C 177.600 140.180,177.790 140.000,178.022 140.000 C 179.463 140.000,186.567 133.747,188.430 130.839 L 189.046 129.878 192.423 133.186 C 197.624 138.282,195.275 137.782,214.682 137.920 L 231.600 138.040 231.600 131.420 L 231.600 124.800 217.293 124.800 L 202.987 124.800 198.493 120.294 L 194.000 115.787 194.000 111.117 C 194.000 108.435,193.830 106.342,193.600 106.200 C 193.380 106.064,193.200 105.421,193.200 104.771 C 193.200 104.121,193.041 103.277,192.847 102.895 C 192.652 102.513,192.318 101.750,192.103 101.200 C 189.668 94.952,185.565 89.901,179.800 86.051 C 178.260 85.022,176.550 83.984,176.000 83.744 C 175.450 83.504,174.550 83.105,174.000 82.859 C 170.086 81.103,160.836 80.331,156.200 81.372 M216.780 82.871 C 217.226 83.350,217.692 83.641,217.815 83.519 C 218.088 83.245,216.892 82.000,216.356 82.000 C 216.143 82.000,216.334 82.392,216.780 82.871 M145.200 83.000 C 144.922 83.335,144.879 83.600,145.102 83.600 C 145.322 83.600,145.726 83.330,146.000 83.000 C 146.278 82.665,146.321 82.400,146.098 82.400 C 145.878 82.400,145.474 82.670,145.200 83.000 M223.478 91.177 C 223.596 91.630,223.852 92.000,224.047 92.000 C 224.586 92.000,224.468 91.354,223.831 90.826 C 223.365 90.439,223.302 90.502,223.478 91.177 M166.056 94.177 C 180.927 97.329,186.286 114.975,175.598 125.600 C 164.770 136.364,147.213 130.885,144.133 115.781 C 141.573 103.230,153.467 91.508,166.056 94.177 M130.965 142.600 C 130.966 146.560,131.026 148.126,131.098 146.080 C 131.171 144.034,131.171 140.794,131.098 138.880 C 131.024 136.966,130.965 138.640,130.965 142.600 M135.400 154.000 C 135.536 154.220,135.917 154.400,136.247 154.400 C 136.577 154.400,136.736 154.580,136.600 154.800 C 136.464 155.020,136.678 155.194,137.076 155.187 C 137.703 155.175,137.673 155.068,136.856 154.387 C 135.859 153.557,134.982 153.324,135.400 154.000 M179.813 294.187 C 185.130 295.571,190.918 300.037,193.076 304.421 C 196.712 311.802,203.659 325.731,206.443 331.219 C 213.428 344.992,213.162 343.505,209.449 348.039 C 208.322 349.415,204.340 354.604,200.600 359.571 L 193.800 368.600 175.000 368.600 L 156.200 368.600 149.400 359.571 C 145.660 354.604,141.678 349.415,140.551 348.039 C 136.806 343.466,136.448 345.404,143.696 331.000 C 145.467 327.480,149.423 319.571,152.487 313.425 C 157.760 302.846,158.200 302.109,160.729 299.619 C 165.914 294.515,173.157 292.453,179.813 294.187 " stroke="none" fill="#825fe2" fill-rule="evenodd"></path><path id="path2" d="M116.687 129.240 L 102.774 143.200 57.387 143.200 L 12.000 143.200 12.000 150.000 L 12.000 156.800 60.617 156.800 C 98.906 156.800,109.368 156.694,109.866 156.300 C 110.214 156.025,111.107 155.233,111.849 154.540 C 112.592 153.847,113.200 153.358,113.200 153.454 C 113.200 153.550,113.626 153.217,114.147 152.714 C 114.668 152.211,115.018 151.665,114.924 151.500 C 114.830 151.335,115.044 151.200,115.400 151.200 C 115.756 151.200,115.936 151.020,115.800 150.800 C 115.664 150.580,115.833 150.400,116.176 150.400 C 116.519 150.400,116.800 150.119,116.800 149.776 C 116.800 149.433,116.980 149.264,117.200 149.400 C 117.420 149.536,117.600 149.337,117.600 148.957 C 117.600 148.577,117.711 148.378,117.847 148.513 C 117.983 148.649,119.288 147.478,120.747 145.910 C 123.829 142.599,129.600 136.851,129.600 137.092 C 129.600 137.183,129.915 136.942,130.300 136.558 C 131.072 135.787,131.620 117.957,130.928 116.140 C 130.635 115.373,129.102 116.783,116.687 129.240 M273.974 134.400 L 258.738 149.600 245.177 149.600 L 231.615 149.600 231.393 150.500 C 231.270 150.995,231.222 153.920,231.285 157.000 L 231.400 162.600 248.700 162.704 C 259.346 162.768,266.000 162.663,266.000 162.431 C 266.000 162.224,266.359 161.940,266.798 161.801 C 267.761 161.495,277.600 151.769,277.600 151.123 C 277.600 150.872,277.706 150.773,277.836 150.903 C 278.142 151.209,283.931 145.496,283.716 145.100 C 283.626 144.935,283.740 144.800,283.969 144.800 C 284.512 144.800,294.800 134.512,294.800 133.969 C 294.800 133.740,294.935 133.626,295.100 133.716 C 295.496 133.931,301.209 128.142,300.903 127.836 C 300.773 127.706,300.986 127.600,301.376 127.600 C 301.859 127.600,302.008 127.398,301.843 126.967 C 301.709 126.619,301.600 126.262,301.600 126.174 C 301.600 126.086,300.655 125.537,299.500 124.956 C 298.345 124.374,295.764 122.841,293.763 121.549 C 291.763 120.257,289.921 119.200,289.668 119.200 C 289.416 119.200,282.353 126.040,273.974 134.400 M343.372 162.527 C 343.261 162.818,343.271 167.183,343.394 172.227 C 343.517 177.272,343.707 191.165,343.816 203.100 L 344.013 224.800 307.430 224.800 C 273.985 224.800,269.375 224.919,270.718 225.749 C 270.900 225.862,271.636 227.809,272.353 230.077 C 274.271 236.135,274.400 236.593,274.400 237.328 C 274.400 237.954,278.286 238.000,331.200 238.000 L 388.000 238.000 388.000 231.400 L 388.000 224.800 378.600 224.800 L 369.200 224.800 369.200 193.400 L 369.200 162.000 356.387 162.000 C 346.150 162.000,343.534 162.106,343.372 162.527 " stroke="none" fill="#dfd6e3" fill-rule="evenodd"></path><path id="path3" d="M31.000 81.203 L 31.000 112.606 56.200 112.606 L 81.400 112.606 81.400 90.203 L 81.400 67.800 78.506 64.900 C 76.915 63.305,75.383 62.000,75.102 62.000 C 74.820 62.000,71.821 59.226,68.436 55.837 L 62.283 49.673 46.641 49.737 L 31.000 49.800 31.000 81.203 M158.730 94.179 C 146.733 96.808,140.254 110.264,145.840 120.951 C 153.845 136.265,176.261 133.723,180.615 117.006 C 184.037 103.868,171.968 91.279,158.730 94.179 " stroke="none" fill="#0fd475" fill-rule="evenodd"></path><path id="path4" d="M173.200 68.829 C 173.200 69.033,172.300 69.200,171.200 69.200 C 170.100 69.200,169.200 69.380,169.200 69.600 C 169.200 69.820,168.665 70.000,168.012 70.000 C 167.359 70.000,166.175 70.364,165.382 70.810 C 164.589 71.255,164.072 71.407,164.232 71.148 C 164.576 70.592,163.809 70.981,162.631 71.961 C 162.164 72.349,161.984 72.392,162.173 72.070 C 162.523 71.474,161.228 72.096,159.900 73.162 C 159.515 73.471,159.200 73.609,159.200 73.468 C 159.200 73.327,158.615 73.568,157.900 74.004 C 157.185 74.440,156.295 74.798,155.923 74.799 C 155.550 74.799,155.010 75.136,154.723 75.546 C 154.205 76.285,153.997 76.400,153.176 76.400 C 152.943 76.400,152.864 76.580,153.000 76.800 C 153.136 77.020,152.956 77.200,152.600 77.200 C 152.244 77.200,152.041 77.343,152.149 77.517 C 152.256 77.691,151.995 77.860,151.568 77.892 C 150.603 77.965,149.464 79.057,149.795 79.592 C 149.934 79.816,149.788 79.893,149.462 79.768 C 148.898 79.552,147.200 81.001,147.200 81.699 C 147.200 81.891,147.020 81.936,146.800 81.800 C 146.580 81.664,146.400 81.763,146.400 82.020 C 146.400 82.276,145.410 83.445,144.200 84.617 C 142.990 85.789,142.000 87.010,142.000 87.331 C 142.000 87.652,141.730 88.018,141.400 88.145 C 141.070 88.271,140.800 88.678,140.800 89.049 C 140.800 89.634,140.892 89.618,141.500 88.927 C 147.211 82.437,160.709 79.116,170.600 81.767 C 172.977 82.404,173.473 82.582,175.800 83.637 C 180.556 85.792,187.102 91.669,189.570 96.000 C 190.368 97.400,191.640 100.012,192.103 101.200 C 192.318 101.750,192.652 102.513,192.847 102.895 C 193.041 103.277,193.200 104.121,193.200 104.771 C 193.200 105.421,193.380 106.064,193.600 106.200 C 193.830 106.342,194.000 108.440,194.000 111.130 L 194.000 115.813 198.506 120.307 L 203.013 124.800 217.306 124.800 L 231.600 124.800 231.600 117.680 C 231.600 113.356,231.439 110.399,231.190 110.150 C 230.965 109.925,230.756 109.079,230.726 108.270 C 230.695 107.462,230.475 106.797,230.235 106.794 C 229.996 106.791,230.070 106.613,230.400 106.400 C 230.800 106.142,230.833 106.010,230.500 106.006 C 230.216 106.003,230.000 105.497,230.000 104.833 C 230.000 104.192,229.809 103.603,229.576 103.525 C 229.343 103.448,229.135 102.809,229.115 102.106 C 229.095 101.403,228.926 100.922,228.740 101.037 C 228.553 101.153,228.397 100.652,228.394 99.924 C 228.390 99.059,228.272 98.783,228.053 99.127 C 227.825 99.487,227.557 99.076,227.208 97.827 C 226.926 96.822,226.539 96.000,226.348 96.000 C 226.157 96.000,226.000 95.730,226.000 95.400 C 226.000 95.070,225.820 94.800,225.600 94.800 C 225.380 94.800,225.200 94.350,225.200 93.800 C 225.200 93.250,225.009 92.800,224.776 92.800 C 224.543 92.800,224.464 92.620,224.600 92.400 C 224.736 92.180,224.546 92.000,224.177 92.000 C 223.693 92.000,223.568 91.767,223.726 91.160 C 223.847 90.699,223.847 90.420,223.725 90.541 C 223.411 90.855,222.400 89.763,222.400 89.110 C 222.400 88.809,221.868 88.121,221.217 87.581 C 220.566 87.042,220.026 86.384,220.017 86.120 C 220.008 85.856,219.685 85.456,219.300 85.232 C 218.915 85.008,218.748 84.819,218.929 84.812 C 219.357 84.796,218.162 83.600,217.717 83.600 C 217.222 83.600,216.025 82.109,216.300 81.834 C 216.428 81.705,216.143 81.600,215.667 81.600 C 215.190 81.600,214.800 81.426,214.800 81.213 C 214.800 80.999,215.115 80.938,215.500 81.076 C 215.885 81.214,216.081 81.195,215.937 81.034 C 215.792 80.872,215.373 80.696,215.007 80.642 C 214.640 80.588,213.670 79.894,212.852 79.099 C 212.033 78.304,211.108 77.597,210.797 77.527 C 210.036 77.356,209.246 76.662,209.443 76.337 C 209.530 76.193,209.241 76.169,208.801 76.284 C 208.240 76.431,208.000 76.297,208.000 75.837 C 208.000 75.427,207.549 75.090,206.800 74.940 C 206.140 74.808,205.600 74.542,205.600 74.350 C 205.600 74.157,205.465 74.036,205.300 74.081 C 205.135 74.125,204.242 73.765,203.316 73.281 C 202.390 72.796,201.310 72.397,200.916 72.394 C 200.307 72.389,200.290 72.330,200.800 72.000 C 201.254 71.707,201.078 71.611,200.076 71.606 C 199.348 71.603,198.843 71.455,198.953 71.277 C 199.062 71.099,198.398 70.910,197.476 70.857 C 196.554 70.803,195.740 70.589,195.667 70.380 C 195.593 70.171,195.098 70.000,194.567 70.000 C 194.035 70.000,193.600 69.857,193.600 69.682 C 193.600 69.507,192.944 69.319,192.143 69.265 C 191.342 69.211,190.397 69.019,190.043 68.839 C 189.139 68.377,173.200 68.368,173.200 68.829 M131.000 133.338 C 131.000 152.181,130.997 152.147,132.909 151.779 C 133.325 151.699,133.751 151.931,133.898 152.319 C 134.243 153.232,135.049 154.018,135.340 153.727 C 135.699 153.367,137.608 154.750,137.497 155.289 C 137.444 155.550,137.580 155.787,137.800 155.816 C 138.517 155.911,139.724 156.526,140.456 157.169 C 142.522 158.986,143.092 159.411,143.621 159.530 C 143.939 159.601,144.260 159.826,144.333 160.030 C 144.407 160.233,144.630 160.400,144.829 160.400 C 145.175 160.400,146.255 161.196,147.445 162.329 C 147.750 162.619,148.000 162.720,148.000 162.552 C 148.000 162.384,148.281 162.596,148.625 163.024 C 149.069 163.574,149.311 163.655,149.458 163.300 C 149.816 162.441,150.853 162.745,152.964 164.325 C 154.084 165.164,155.225 165.985,155.500 166.149 C 155.895 166.385,156.000 164.015,156.000 154.824 L 156.000 143.200 154.795 143.200 C 154.132 143.200,153.277 143.041,152.895 142.847 C 152.513 142.652,151.750 142.318,151.200 142.103 C 144.952 139.668,139.901 135.565,136.051 129.800 C 133.169 125.486,131.604 121.511,131.594 118.485 C 131.591 117.448,131.456 116.392,131.294 116.138 C 131.132 115.885,131.000 123.625,131.000 133.338 M188.348 130.900 C 187.053 133.330,179.484 140.000,178.022 140.000 C 177.790 140.000,177.600 140.180,177.600 140.400 C 177.600 140.620,177.335 140.800,177.012 140.800 C 176.689 140.800,175.783 141.160,175.000 141.600 C 174.217 142.040,173.232 142.400,172.811 142.400 C 172.391 142.400,171.936 142.580,171.800 142.800 C 171.664 143.020,171.023 143.200,170.376 143.200 L 169.200 143.200 169.200 159.531 L 169.200 175.863 173.866 179.031 C 176.433 180.774,178.736 182.380,178.983 182.600 C 179.231 182.820,179.718 183.180,180.066 183.400 C 181.740 184.460,185.886 187.441,186.575 188.081 C 187.002 188.476,187.547 188.800,187.787 188.800 C 188.027 188.800,188.483 189.160,188.800 189.600 C 189.117 190.040,189.573 190.400,189.813 190.400 C 190.053 190.400,190.598 190.715,191.025 191.100 C 191.780 191.782,192.633 192.231,194.919 193.150 C 195.683 193.457,201.167 193.600,212.219 193.600 L 228.401 193.600 229.995 191.958 L 231.588 190.315 231.508 164.177 L 231.427 138.040 214.595 137.920 C 195.302 137.782,197.613 138.271,192.485 133.247 C 188.721 129.560,188.984 129.709,188.348 130.900 M68.600 213.367 C 67.280 213.670,65.694 213.821,65.076 213.704 C 64.458 213.587,63.558 213.672,63.076 213.895 C 59.745 215.431,58.400 216.170,58.400 216.463 C 58.400 216.648,58.164 216.800,57.875 216.800 C 57.587 216.800,56.969 217.156,56.501 217.591 C 56.034 218.027,55.421 218.432,55.139 218.491 C 54.550 218.616,51.293 221.855,50.400 223.204 C 50.070 223.702,49.395 224.527,48.900 225.037 C 48.405 225.547,48.000 226.152,48.000 226.382 C 48.000 226.612,47.820 226.800,47.600 226.800 C 47.380 226.800,47.200 227.070,47.200 227.400 C 47.200 227.730,47.020 228.000,46.800 228.000 C 46.580 228.000,46.400 228.272,46.400 228.605 C 46.400 228.938,46.241 229.523,46.047 229.905 C 45.414 231.149,44.862 232.569,44.377 234.200 C 44.116 235.080,43.773 236.070,43.617 236.400 C 42.257 239.259,44.265 252.180,46.876 257.372 C 58.837 281.162,92.832 280.526,103.349 256.315 C 109.860 241.328,103.577 223.436,89.275 216.239 C 83.158 213.160,74.653 211.979,68.600 213.367 M270.000 225.147 C 270.000 225.542,271.486 229.446,272.036 230.495 C 272.236 230.877,272.400 231.631,272.400 232.171 C 272.400 232.711,272.580 233.264,272.800 233.400 C 273.020 233.536,273.200 234.232,273.200 234.947 C 273.200 235.662,273.464 236.596,273.787 237.024 C 274.490 237.953,274.591 237.288,274.029 235.428 C 272.257 229.561,271.759 228.018,271.244 226.800 C 270.918 226.030,270.685 225.265,270.726 225.100 C 270.767 224.935,270.620 224.800,270.400 224.800 C 270.180 224.800,270.000 224.956,270.000 225.147 M172.100 293.876 C 172.485 293.976,173.115 293.976,173.500 293.876 C 173.885 293.775,173.570 293.693,172.800 293.693 C 172.030 293.693,171.715 293.775,172.100 293.876 M176.500 293.876 C 176.885 293.976,177.515 293.976,177.900 293.876 C 178.285 293.775,177.970 293.693,177.200 293.693 C 176.430 293.693,176.115 293.775,176.500 293.876 M160.800 299.400 C 159.828 300.390,159.123 301.200,159.233 301.200 C 159.343 301.200,160.228 300.390,161.200 299.400 C 162.172 298.410,162.877 297.600,162.767 297.600 C 162.657 297.600,161.772 298.410,160.800 299.400 M188.783 299.300 C 190.441 301.066,190.800 301.384,190.800 301.083 C 190.800 301.019,189.945 300.164,188.900 299.183 L 187.000 297.400 188.783 299.300 M37.000 325.957 C 31.257 327.631,26.607 331.059,22.679 336.513 C 22.011 337.441,21.135 338.435,20.732 338.723 C 20.329 339.010,20.000 339.685,20.000 340.223 C 20.000 340.760,19.840 341.200,19.645 341.200 C 18.966 341.200,18.675 343.840,18.675 350.000 C 18.675 356.160,18.966 358.800,19.645 358.800 C 19.840 358.800,20.000 359.143,20.000 359.562 C 20.000 360.469,21.608 363.600,22.074 363.600 C 22.253 363.600,22.400 363.960,22.400 364.400 C 22.400 364.840,22.657 365.200,22.972 365.200 C 23.286 365.200,24.231 365.850,25.072 366.644 C 36.569 377.507,51.150 377.816,61.400 367.415 C 79.209 349.343,61.279 318.877,37.000 325.957 M287.634 326.034 C 277.439 328.665,271.164 335.958,268.984 347.710 C 268.185 352.018,268.589 358.800,269.645 358.800 C 269.840 358.800,270.000 359.143,270.000 359.562 C 270.000 360.469,271.608 363.600,272.074 363.600 C 272.253 363.600,272.400 363.876,272.400 364.213 C 272.400 364.551,272.985 365.418,273.700 366.140 C 274.415 366.862,275.646 368.161,276.435 369.026 C 278.360 371.139,283.763 374.244,286.153 374.613 C 286.619 374.684,287.405 374.867,287.900 375.018 C 288.413 375.175,288.800 375.123,288.800 374.897 C 288.800 374.650,290.134 374.577,292.348 374.703 C 310.934 375.762,324.020 356.308,316.150 339.316 C 315.254 337.379,311.670 332.000,311.277 332.000 C 311.113 332.000,309.997 331.263,308.798 330.361 C 306.444 328.593,304.136 327.315,302.211 326.716 C 296.740 325.013,292.381 324.809,287.634 326.034 " stroke="none" fill="#ab8cf4" fill-rule="evenodd"></path></g></svg>